<svg width="120" height="120" viewBox="0 0 120 120" fill="none" xmlns="http://www.w3.org/2000/svg">
  <defs>
    <linearGradient id="aperture" x1="39" y1="38" x2="82" y2="80" gradientUnits="userSpaceOnUse">
      <stop stop-color="#00f5d4"/>
      <stop offset="0.48" stop-color="#9b5de5"/>
      <stop offset="1" stop-color="#ff206e"/>
    </linearGradient>
    <filter id="depth" x="-25%" y="-25%" width="150%" height="150%">
      <feDropShadow dx="0" dy="8" stdDeviation="9" flood-color="#02030b" flood-opacity="0.52"/>
    </filter>
  </defs>
  <g filter="url(#depth)">
    <path d="M60 13 C46 35 34 59 20 96" stroke="#00f5d4" stroke-width="18" stroke-linecap="round"/>
    <path d="M60 13 C74 36 86 61 100 96" stroke="#ff206e" stroke-width="18" stroke-linecap="round"/>
    <path d="M20 96 C45 82 75 82 100 96" stroke="#9b5de5" stroke-width="18" stroke-linecap="round"/>
    <path d="M60 13 C46 35 34 59 20 96" stroke="white" stroke-opacity="0.34" stroke-width="3" stroke-linecap="round"/>
    <path d="M60 13 C74 36 86 61 100 96" stroke="white" stroke-opacity="0.24" stroke-width="3" stroke-linecap="round"/>
    <path d="M20 96 C45 82 75 82 100 96" stroke="white" stroke-opacity="0.22" stroke-width="3" stroke-linecap="round"/>
  </g>
  <path d="M60 39 L80 59 L60 79 L40 59 Z" fill="#070914" stroke="url(#aperture)" stroke-width="5"/>
  <path d="M60 51 L68 59 L60 67 L52 59 Z" fill="url(#aperture)"/>
</svg>
